<?xml version="1.0" standalone="no"?>
<!DOCTYPE svg PUBLIC "-//W3C//DTD SVG 20010904//EN" "http://www.w3.org/TR/2001/REC-SVG-20010904/DTD/svg10.dtd">
<svg version="1.0" xmlns="http://www.w3.org/2000/svg"  width="1000.000000pt" height="1000.000000pt" viewBox="0 0 1000.000000 1000.000000"  preserveAspectRatio="xMidYMid meet">
	<style>
		g
		{
		fill: #1f3cbc;
		}
		@media (prefers-color-scheme: dark)
		{
		g
		{
		fill: #ffffff;
		}
		}
	</style>
	<g transform="translate(0.000000,1000.000000) scale(0.100000,-0.100000)" stroke="none">
		<path d="M5905 8833 c-937 -758 -1415 -1474 -1506 -2253 -17 -150 -7 -472 20
-625 66 -371 209 -742 447 -1156 152 -266 327 -525 685 -1019 366 -505 453
-638 564 -860 102 -203 162 -383 202 -600 21 -118 24 -445 5 -565 -23 -139
-62 -304 -101 -421 -21 -63 -36 -114 -34 -114 13 0 214 129 301 194 133 99
400 365 506 504 509 670 713 1489 555 2221 -82 375 -264 767 -560 1207 -107
158 -227 320 -539 729 -130 171 -277 366 -326 435 -297 416 -472 781 -525
1093 -18 102 -20 149 -16 287 6 176 19 257 68 405 54 165 183 403 303 558 15
20 27 37 25 37 -2 0 -35 -26 -74 -57z"/>
		<path d="M3223 5436 c-295 -305 -505 -658 -625 -1045 l-20 -64 36 -51 c130
-189 417 -497 596 -640 362 -289 772 -474 1178 -530 132 -19 391 -21 530 -5
105 12 154 28 88 29 -83 0 -239 52 -400 133 -582 289 -1012 804 -1190 1424
-63 220 -80 348 -81 615 0 131 -3 238 -6 238 -4 0 -51 -47 -106 -104z"/>
		<path d="M2420 4143 c-18 -117 -24 -451 -11 -589 42 -408 177 -807 398 -1175
35 -59 69 -112 76 -117 22 -19 362 -35 582 -29 585 17 1025 157 1390 442 146
114 347 336 427 472 l16 28 -66 -32 c-200 -95 -492 -142 -817 -130 -323 12
-616 93 -933 257 -389 202 -772 540 -999 881 -25 38 -47 69 -48 69 -2 0 -8
-35 -15 -77z"/>
		<path d="M5537 3553 c-9 -81 -45 -180 -116 -319 -356 -700 -973 -1129 -1796
-1251 -164 -24 -569 -25 -665 -1 -36 9 -67 15 -69 12 -8 -8 246 -252 324 -311
398 -300 875 -488 1420 -558 272 -35 622 -29 883 15 166 29 304 66 319 87 25
33 135 328 169 452 100 364 110 722 29 1036 -71 274 -214 550 -409 795 -38 47
-72 89 -76 93 -4 4 -10 -18 -13 -50z"/>
	</g>
</svg>
